<?xml version="1.0" encoding="utf-8"?>
<!-- Generator: Adobe Illustrator 24.2.0, SVG Export Plug-In . SVG Version: 6.00 Build 0)  -->
<svg version="1.1" id="Layer_1" xmlns="http://www.w3.org/2000/svg" xmlns:xlink="http://www.w3.org/1999/xlink" x="0px" y="0px"
	 viewBox="0 0 1062.2 195.6" style="enable-background:new 0 0 1062.2 195.6;" xml:space="preserve">
<style type="text/css">
	.st0{fill:#517577;}
</style>
<g id="Layer_9">
	<path class="st0" d="M39.2,133.3c1.2-1.6,3.6-1.9,5.2-0.7c0.1,0,0.1,0.1,0.2,0.2c9,7.3,24,15.7,39.8,15.6c10.6,0,20.1-3.1,26.6-8
		c6.7-4.8,10.4-11.2,10.4-18c0-6.9-3.3-12.1-9.9-16.6c-6.6-4.3-16.3-7.6-28-9.9h-0.3c-11.3-2-21.1-5.1-28.6-10.2
		c-7.4-4.9-12.5-12.1-12.5-21.1c0-9.2,5-17.1,12.6-22.7s17.8-8.8,29.2-8.8c15.9,0,27.8,7.8,37.4,14c1.8,1.2,2.2,3.6,1,5.4
		c-1.1,1.7-3.3,2.2-5,1.1c0,0-0.1-0.1-0.1-0.1c-9.5-6.2-19.9-12.8-33.2-12.8c-9.9,0-18.7,2.9-24.7,7.3c-6.1,4.5-9.5,10.4-9.5,16.6
		c0.2,6,3,10.6,9,14.7s15,7.1,25.9,9.2H85c12.2,2.3,22.9,5.8,30.9,11.1c8,5.2,13.3,13.1,13.3,22.8s-5.5,18.3-13.7,24.2
		s-19,9.5-31.1,9.5c-18.5-0.2-34.6-9.5-44.6-17.5C38.2,137.3,38,135,39.2,133.3z"/>
	<path class="st0" d="M258.2,113.4c0-23.5,19.4-42.2,43.6-42.2c9.8,0,19.3,3.3,27,9.3c1.7,1.3,2,3.8,0.7,5.5
		c-0.1,0.1-0.1,0.2-0.2,0.2c-1.4,1.7-3.9,2-5.7,0.7c-6.2-4.9-13.9-7.6-21.8-7.6c-19.7,0-35.3,15.4-35.3,34.1
		c0,19,15.6,34.3,35.3,34.3c7.9,0,15.6-2.6,21.8-7.4c1.8-1.3,4.3-1,5.7,0.7c1.5,1.7,1.2,4.3-0.5,5.8c-0.1,0.1-0.2,0.2-0.4,0.3
		c-7.7,5.8-17,9-26.6,9C277.6,156,258.2,137.3,258.2,113.4z"/>
	<path class="st0" d="M361.3,75.2c0.1-2.3,2.1-4.1,4.4-4c2.1,0.1,3.8,1.8,4,4v46.2c-0.3,14.4,11.2,26.4,25.6,26.6
		s26.4-11.2,26.6-25.6c0-0.3,0-0.7,0-1V75.2c0-2.3,1.9-4.1,4.1-4.2c2.3-0.1,4.2,1.7,4.3,4c0,0.1,0,0.1,0,0.2v46.2
		c0.6,19.1-14.3,35-33.3,35.7c-19.1,0.6-35-14.3-35.7-33.3c0-0.8,0-1.6,0-2.3L361.3,75.2z"/>
	<path class="st0" d="M508.6,113.8c0-23.5,18.3-42.6,41.2-42.6c21.8,0,39.1,17.3,40.8,39.4v0.7c-0.1,2.2-1.9,3.9-4,3.8
		c0,0-0.1,0-0.1,0h-69.5c0.9,18.5,15.4,32.5,32.9,32.5c11.2,0,21.6-5.8,27.3-15.4c1.1-1.9,3.6-2.5,5.5-1.4c0,0,0,0,0.1,0
		c1.9,1.3,2.6,3.9,1.4,5.9c-7.3,11.9-20.3,19.2-34.2,19.2C526.9,156,508.6,136.9,508.6,113.8z M517.4,107h64.2
		c-2.8-15.9-16.3-27.5-31.8-27.5C533.8,79.5,520.5,90.9,517.4,107z"/>
	<path class="st0" d="M680.5,105.9c0-14.4-11.6-26.1-26-26.2c0,0-0.1,0-0.1,0c-14.3,0-26,11.8-26.3,26.1v46.7
		c-0.1,0.7-0.4,1.4-0.9,1.9c-0.7,1-1.9,1.6-3.1,1.6h-1c-1.2-0.3-2.2-1.2-2.8-2.2c-0.1-0.1-0.2-0.3-0.2-0.5c0-0.1-0.1-0.2-0.2-0.3
		V75.5c-0.1-2.2,1.6-4.2,3.9-4.3c2.2-0.1,4.2,1.6,4.3,3.9c0,0.1,0,0.3,0,0.4v8.1c12.2-14.5,33.9-16.4,48.4-4.2
		c7.8,6.5,12.3,16.2,12.2,26.3v46c0,2.3-1.9,4.2-4.1,4.2s-4.2-1.9-4.2-4.1c0,0,0,0,0,0V105.9z"/>
	<path class="st0" d="M755.6,75.4c-0.1,2.2-1.9,4-4.2,4.2h-10.9v61.8c0,4.1,4.2,6.2,6.2,6.2c2.3,0.2,4.1,2,4.3,4.3
		c-0.2,2.3-2.1,4-4.3,4.1c-8.5,0-14.9-6.2-14.9-14.7V79.5h-10.6c-4.2,0-4.2-2.1-4.2-4.2s0-4.2,4.2-4.2h10.5V39.7
		c0.2-2.2,1.9-4,4.2-4.2c2.2,0,4.5,2.1,4.5,4.2v31.5h10.9C753.7,71.3,755.5,73.1,755.6,75.4z"/>
	<path class="st0" d="M791.2,75.7c0-2.3,1.9-4.1,4.2-4.2c2.3,0,4.3,1.8,4.3,4.2v4c0.2,2.3-1.6,4.4-3.9,4.5c-2.3,0.2-4.4-1.6-4.5-3.9
		c0-0.2,0-0.4,0-0.6L791.2,75.7z M791.2,99.9c0-2.3,1.8-4.1,4-4.1c0,0,0.1,0,0.1,0c2.3-0.1,4.2,1.7,4.3,4c0,0.1,0,0.1,0,0.2v51.7
		c-0.1,2.3-2,4.2-4.3,4.2c-2.3,0-4.1-1.9-4.2-4.2V99.9z"/>
	<path class="st0" d="M904.4,105.9c0-14.4-11.7-26.1-26.1-26.1c0,0,0,0-0.1,0c-14.4,0-26,11.8-26.3,26.1v46.7
		c-0.1,0.7-0.4,1.4-0.9,1.9c-0.7,1-1.9,1.6-3.1,1.6h-1c-1.2-0.3-2.2-1.2-2.8-2.2c-0.1-0.1-0.2-0.3-0.2-0.5c0-0.1-0.1-0.3-0.2-0.3
		V75.5c0-2.2,1.8-4.1,4.1-4.1s4.1,1.8,4.1,4.1v8.1c12.2-14.5,33.9-16.4,48.4-4.2c7.8,6.5,12.3,16.2,12.2,26.3v46
		c0,2.3-1.9,4.2-4.1,4.2s-4.2-1.9-4.2-4.1c0,0,0,0,0,0V105.9z"/>
	<path class="st0" d="M1021,75.4v76.5c-0.1,2.3-2.1,4.1-4.4,4c-2.1-0.1-3.8-1.8-4-4v-12.7c-7.3,10-18.9,16.8-31.8,16.8
		c-22.3,0-40.1-19.2-40.1-42.4s17.8-42.4,40.2-42.4c12.7,0.1,24.5,6.3,31.8,16.7V75.4c0.1-2.3,2.1-4.1,4.4-4
		C1019.2,71.5,1020.9,73.2,1021,75.4z M1012.7,113.6c0-19-14.4-34.3-31.8-34.3c-17.3,0-31.8,15.2-31.8,34.3s14.5,34.1,31.8,34.1
		C998.3,147.7,1012.7,132.6,1012.7,113.6z"/>
	<path class="st0" d="M474,154.2c0.1-19.5,0.2-39,0.5-58.6c0.1-8.8,0.3-17.6,0.5-26.4c0.3-10,0.6-19.7,6.2-28.4
		c2.7-4.2-4-8.2-6.7-3.9c-5.4,8.4-6.8,17.8-7.1,27.5c-0.3,9.3-0.5,18.6-0.6,27.9c-0.4,20.6-0.6,41.3-0.6,61.9
		C466.2,159.2,474,159.2,474,154.2L474,154.2z"/>
	<path class="st0" d="M168.6,51.7c15.8,0.7,26,19.3,26.3,33.3c0.1,3.8,6.1,3.9,6,0c-0.4-17.4-13.1-38.5-32.3-39.3
		C164.7,45.5,164.7,51.5,168.6,51.7z"/>
	<path class="st0" d="M195.8,82c-16-1.6-26.4-18.3-26.3-33.3c0-3.9-6-3.9-6,0c-0.1,18.6,13,37.3,32.3,39.3
		C199.6,88.4,199.6,82.4,195.8,82z"/>
	<path class="st0" d="M227.2,45.7C208,46.5,195.2,67.6,194.9,85c-0.1,3.9,5.9,3.9,6,0c0.3-14,10.5-32.6,26.3-33.3
		C231,51.5,231.1,45.5,227.2,45.7z"/>
	<path class="st0" d="M200,88c19.3-2,32.4-20.7,32.3-39.3c0-3.9-6-3.9-6,0c0.1,15-10.3,31.7-26.3,33.3C196.2,82.4,196.2,88.4,200,88
		z"/>
	<path class="st0" d="M163.4,94c0.1-2.3,2.1-4.1,4.4-4c2.1,0.1,3.8,1.8,4,4v27.4c0,14.4,11.7,26.1,26.1,26.1
		c14.4,0,26.1-11.7,26.1-26.1V94c0-2.3,1.9-4.1,4.2-4.1c2.3-0.1,4.2,1.7,4.3,4c0,0.1,0,0.1,0,0.2v27.4c0.6,19.1-14.3,35-33.3,35.7
		c-19.1,0.6-35-14.3-35.7-33.3c0-0.8,0-1.6,0-2.3L163.4,94z"/>
	<path class="st0" d="M791.2,75.7c0-2.3,1.9-4.1,4.2-4.2c2.3,0,4.3,1.8,4.3,4.2v4c0.2,2.3-1.6,4.4-3.9,4.5c-2.3,0.2-4.4-1.6-4.5-3.9
		c0-0.2,0-0.4,0-0.6L791.2,75.7z M791.2,99.9c0-2.3,1.8-4.1,4-4.1c0,0,0.1,0,0.1,0c2.3-0.1,4.2,1.7,4.3,4c0,0.1,0,0.1,0,0.2v51.7
		c-0.1,2.3-2,4.2-4.3,4.2c-2.3,0-4.1-1.9-4.2-4.2V99.9z"/>
</g>
</svg>
