<?xml version="1.0" encoding="utf-8"?>
<!-- Generator: Adobe Illustrator 24.2.0, SVG Export Plug-In . SVG Version: 6.00 Build 0)  -->
<svg version="1.1" id="Layer_1" xmlns="http://www.w3.org/2000/svg" xmlns:xlink="http://www.w3.org/1999/xlink" x="0px" y="0px"
	 viewBox="0 0 496 496" style="enable-background:new 0 0 496 496;" xml:space="preserve">
<g>
	<path d="M236.6,143.7c-63,0-114.2,51.2-114.2,114.2c0,62.9,51.2,114.2,114.2,114.2s114.2-51.2,114.2-114.2
		C350.8,194.9,299.6,143.7,236.6,143.7z M236.6,332.7c-41.3,0-74.9-33.6-74.9-74.8c0-41.3,33.6-74.9,74.9-74.9s74.9,33.6,74.9,74.9
		C311.5,299.1,277.9,332.7,236.6,332.7z"/>
	<path d="M355.6,110.3c-7.6,0-15,3.1-20.4,8.4c-5.4,5.3-8.5,12.8-8.5,20.4c0,7.6,3.1,15,8.5,20.4c5.3,5.3,12.8,8.4,20.4,8.4
		c7.6,0,15-3.1,20.4-8.4c5.4-5.4,8.4-12.8,8.4-20.4c0-7.6-3.1-15-8.4-20.4C370.6,113.4,363.2,110.3,355.6,110.3z"/>
</g>
<path d="M366.8,0H129.1C54.3,0,0,54.3,0,129.2v237.6C0,441.7,54.3,496,129.1,496h237.7c74.9,0,129.2-54.3,129.2-129.2V129.2
	C496,54.3,441.7,0,366.8,0z M464,366.8c0,57.2-40,97.2-97.2,97.2H129.1C72,464,32,424,32,366.8V129.2C32,72,72,32,129.1,32h237.7
	C424,32,464,72,464,129.2V366.8z"/>
</svg>
