<?xml version="1.0" encoding="utf-8"?>
<!-- Generator: Adobe Illustrator 24.2.0, SVG Export Plug-In . SVG Version: 6.00 Build 0)  -->
<svg version="1.1" id="Capa_1" xmlns="http://www.w3.org/2000/svg" xmlns:xlink="http://www.w3.org/1999/xlink" x="0px" y="0px"
	 viewBox="0 0 512 512" style="enable-background:new 0 0 512 512;" xml:space="preserve">
<style type="text/css">
	.st0{fill:#FFFFFF;}
</style>
<g transform="translate(1 1)">
	<g>
		<g>
			<path class="st0" d="M489.7,84.3H447h0h-68.7l-7-28.1C362.9,22.6,332.7-1,298-1H212c-34.7,0-64.9,23.6-73.3,57.3l-7,28.1H63h0
				c0,0,0,0,0,0H20.3C8.6,84.3-1,93.9-1,105.7S8.6,127,20.3,127h22.5l18,323.5c1.9,33.9,29.9,60.5,63.9,60.5h260.6
				c34,0,62-26.5,63.9-60.5l18-323.5h22.5c11.8,0,21.3-9.6,21.3-21.3C511,93.9,501.4,84.3,489.7,84.3z M180.1,66.6
				c3.7-14.7,16.8-24.9,32-24.9H298c15.1,0,28.3,10.3,32,24.9l4.4,17.7H175.7L180.1,66.6z M406.6,448.2c-0.6,11.3-10,20.2-21.3,20.2
				H124.7c-11.3,0-20.7-8.9-21.3-20.2L85.6,127h62.8h213.3h62.8L406.6,448.2z"/>
			<path class="st0" d="M169.7,169.7c-11.8,0-21.3,9.6-21.3,21.3v213.3c0,11.8,9.6,21.3,21.3,21.3c11.8,0,21.3-9.6,21.3-21.3V191
				C191,179.2,181.4,169.7,169.7,169.7z"/>
			<path class="st0" d="M255,169.7c-11.8,0-21.3,9.6-21.3,21.3v213.3c0,11.8,9.6,21.3,21.3,21.3s21.3-9.6,21.3-21.3V191
				C276.3,179.2,266.8,169.7,255,169.7z"/>
			<path class="st0" d="M340.3,169.7c-11.8,0-21.3,9.6-21.3,21.3v213.3c0,11.8,9.6,21.3,21.3,21.3s21.3-9.6,21.3-21.3V191
				C361.7,179.2,352.1,169.7,340.3,169.7z"/>
		</g>
	</g>
</g>
</svg>
